<svg width="32" height="32" viewBox="0 0 32 32" fill="none" xmlns="http://www.w3.org/2000/svg">
<g clip-path="url(#clip0_18_33)" filter="url(#filter0_d_18_33)">
<path d="M24.9646 10.9029C24.7478 10.89 24.5412 10.9959 24.4251 11.1794C24.2103 11.0446 23.6274 10.7611 23.4011 10.6446L23.3189 10.6034C23.3057 10.5978 23.2909 10.5978 23.2777 10.6034V10.5897C23.2789 10.573 23.2789 10.5562 23.2777 10.5394C23.5063 5.83543 18.7451 2.18057 14.1349 3.59543C11.8963 4.30748 10.143 6.06245 9.43314 8.30171C9.2452 8.98643 9.14535 9.69231 9.136 10.4023L8.96228 10.4709L8.83657 10.5234C8.608 10.624 8.37942 10.7314 8.15085 10.848C7.92228 10.9646 7.69371 11.0766 7.48571 11.2206C7.45554 11.2392 7.44382 11.2773 7.45828 11.3097C7.47566 11.344 7.5166 11.359 7.552 11.344C7.78057 11.2389 8.00914 11.1451 8.23771 11.0583C8.46628 10.9714 8.70628 10.8937 8.94399 10.8297H8.95771C9.072 10.7954 9.18628 10.7657 9.30285 10.736L9.48114 10.6949H9.50171L9.66171 10.6606C9.90171 10.608 10.144 10.576 10.3863 10.5463H10.4137C10.5072 10.5326 10.585 10.4672 10.6144 10.3775C10.6439 10.2877 10.62 10.1889 10.5528 10.1225C10.4856 10.0561 10.3866 10.0334 10.2971 10.064C10.0686 10.1189 9.83999 10.1783 9.63199 10.2491L9.67542 10.2354C9.6886 9.6026 9.77996 8.97384 9.94742 8.36343C10.6051 6.29721 12.2241 4.67828 14.2903 4.02057C14.4762 3.96419 14.6613 3.91619 14.8457 3.87657C15.0263 3.83771 15.7486 3.73486 14.96 4.176C13.6494 4.92954 12.6703 6.14857 12.2171 7.59086C11.9886 8.32914 11.8994 9.78514 12.0594 10.9029C12.1097 11.2526 11.9909 11.3211 11.7737 11.4126C11.3166 11.6069 10.5166 11.9589 10.1051 12.4571C9.94514 12.6491 9.87657 12.4571 9.83771 12.32C9.75769 11.9437 9.70876 11.5615 9.69142 11.1771C9.68972 11.1436 9.67307 11.1126 9.64606 11.0927C9.61905 11.0728 9.58453 11.066 9.552 11.0743C9.44 11.1017 9.32342 11.1291 9.21828 11.1657C9.17177 11.1818 9.14117 11.2263 9.14285 11.2754C9.20685 12.7451 9.57942 14.112 10.4709 14.0686C10.5052 14.0661 10.5368 14.0487 10.5575 14.0211C10.5781 13.9935 10.5857 13.9582 10.5783 13.9246C10.4389 13.8493 10.3299 13.7282 10.2697 13.5817C9.97485 12.6994 12.7086 11.5451 16.2126 11.0217C19.4309 10.5394 22.1943 10.7589 22.6743 11.4926C22.7735 11.6182 22.7844 11.7921 22.7017 11.9291C22.4995 12.2923 22.1972 12.5898 21.8309 12.7863C21.7999 12.8051 21.7779 12.8358 21.7702 12.8712C21.7624 12.9066 21.7694 12.9437 21.7897 12.9737C21.8259 13.0303 21.8991 13.05 21.9589 13.0194C22.4072 12.8001 22.7809 12.4535 23.0331 12.0229C23.1752 11.6996 23.2529 11.3518 23.2617 10.9989C23.4903 11.0697 24.0937 11.312 24.3246 11.4057H24.3429C24.3332 11.4439 24.3271 11.483 24.3246 11.5223C24.3108 11.8735 24.5736 12.1743 24.9234 12.208C25.0837 12.2154 25.2402 12.1585 25.3583 12.0499C25.4763 11.9413 25.5461 11.79 25.552 11.6297C25.5748 11.2774 25.3156 10.9698 24.9646 10.9326V10.9029ZM20.4571 9.41714C20.4605 9.50501 20.4267 9.59022 20.3641 9.65196C20.3015 9.7137 20.2158 9.74627 20.128 9.74171C19.3589 9.68233 18.5859 9.6961 17.8194 9.78286C17.7305 9.79007 17.6427 9.759 17.5781 9.69746C17.5135 9.63592 17.4782 9.54975 17.4811 9.46057V9.19086C17.4816 9.12278 17.529 9.06403 17.5954 9.04914C18.5027 8.8978 19.4278 8.887 20.3383 9.01714C20.4059 9.02853 20.4547 9.08807 20.4526 9.15657L20.4571 9.41714ZM22.0709 8.65143C22.04 8.69914 21.9796 8.7183 21.9269 8.69714C19.9337 7.94057 16.8229 8.368 16.8229 8.368C15.7559 8.47413 14.7068 8.7153 13.7006 9.08572C13.5908 9.12775 13.4672 9.11219 13.3713 9.04425C13.2754 8.97631 13.2197 8.86495 13.2229 8.74743C13.2309 8.47382 13.2584 8.20114 13.3051 7.93143C13.4061 7.19354 13.7038 6.49642 14.1669 5.91314C14.1943 5.88114 14.2217 5.84914 14.2514 5.81943C14.2562 5.81085 14.2624 5.80313 14.2697 5.79657L14.2834 5.78057L14.3177 5.744L14.3337 5.728C15.6891 4.31086 18.0731 4.14857 19.7463 5.072C20.5829 5.54299 21.2764 6.23174 21.7531 7.06514C21.8263 7.20229 22.288 8.26971 22.0709 8.65143Z" fill="black"/>
<path d="M21.0103 6.87771C20.6322 6.23293 20.0557 5.72777 19.3669 5.43771C18.5987 5.11446 17.7621 4.98722 16.9326 5.06743C16.638 5.09057 16.348 5.15442 16.0709 5.25714C16.0155 5.27307 15.9801 5.32706 15.9875 5.3842C15.9949 5.44133 16.043 5.48447 16.1006 5.48571C16.7256 5.41974 17.3566 5.43665 17.9771 5.536C20.2629 5.99314 20.9943 7.09257 21.0743 7.136C21.0971 7.14743 21.1246 7.12457 21.1131 7.10171C21.0836 7.02382 21.0501 6.94753 21.0126 6.87314" fill="black"/>
<path d="M10.7886 10.8663C10.8278 10.9215 10.8895 10.9565 10.957 10.9618C11.0245 10.967 11.0909 10.9421 11.1383 10.8937C11.2143 10.8172 11.2701 10.7229 11.3006 10.6194C11.3706 10.3537 11.3538 10.0726 11.2526 9.81714C11.1874 9.65413 11.069 9.51797 10.9166 9.43086C10.8887 9.41323 10.855 9.40746 10.8229 9.41486C10.7291 9.44625 10.6486 9.50823 10.5943 9.59086C10.5807 9.60793 10.5751 9.63007 10.579 9.65155C10.583 9.67303 10.5961 9.69175 10.6149 9.70286C10.8006 9.80089 10.9311 9.97861 10.9691 10.1851C10.9955 10.3964 10.9297 10.6087 10.7886 10.768C10.7643 10.7963 10.7643 10.838 10.7886 10.8663Z" fill="black"/>
<path d="M6.51429 11.2C6.317 11.1836 6.12136 11.2469 5.97105 11.3757C5.82074 11.5046 5.72827 11.6882 5.71429 11.8857C5.70756 12.3113 6.03891 12.6659 6.464 12.688C6.86674 12.7171 7.21852 12.4181 7.25486 12.016C7.27177 11.5876 6.94233 11.2246 6.51429 11.2Z" fill="black"/>
<path d="M27.9291 12C27.9295 6.41327 24.0576 1.57249 18.6072 0.345614C13.1569 -0.881258 7.58413 1.83353 5.19064 6.88157C2.79714 11.9296 4.22228 17.9624 8.62171 21.4057L8.85028 21.5863C8.928 21.6457 9.008 21.7029 9.07886 21.76C10.3067 22.6288 11.688 23.257 13.1497 23.6114H13.184L13.3874 23.6594L13.4491 23.6709L13.6411 23.712L13.7166 23.7257L13.904 23.76L13.9771 23.7737C14.1006 23.7935 14.224 23.8118 14.3474 23.8286L14.4206 23.84L14.56 23.856L14.7017 23.872L14.8343 23.8857L14.9874 23.8994H15.1131H15.2777H15.3943H15.584H15.68H15.9657C16.0686 23.8994 16.1691 23.8994 16.2697 23.8994H16.3703H16.5737H16.6949H16.8731L17.0034 23.888L17.1703 23.8743L17.3074 23.8583L17.4674 23.84L17.6069 23.8217L17.76 23.7989L17.9017 23.776L18.0503 23.7531L18.1943 23.7257L18.3406 23.6983L18.4846 23.6663L18.6263 23.6366L18.7703 23.6023L18.9097 23.568L19.0857 23.5429L19.2183 23.5063L19.3669 23.4651L19.4971 23.4263L19.6434 23.3783C19.6868 23.367 19.7296 23.3532 19.7714 23.3371L19.92 23.2869L20.0434 23.2434L20.192 23.1886L20.3109 23.1429L20.4571 23.0857L20.5714 23.04L20.7223 22.976L20.8343 22.928L20.9851 22.8594L21.0926 22.8091L21.2434 22.736L21.3463 22.6834L21.4971 22.608L21.5977 22.5531C21.6503 22.528 21.7006 22.5006 21.7486 22.4731L21.8469 22.4183L21.9977 22.3314L22.0891 22.2766L22.2423 22.1851L22.3291 22.1303L22.4823 22.0343L22.5646 21.9794L22.7177 21.8766L22.7954 21.824L22.9509 21.7143L23.0217 21.6617L23.1794 21.5451L23.2434 21.4971L23.4034 21.3737L23.4606 21.3257L23.6229 21.1954L23.6709 21.152L23.8377 21.0126L23.8766 20.9783L24.048 20.8229L24.0731 20.8023L24.2537 20.6309C26.6097 18.3804 27.9406 15.2627 27.936 12.0046L27.9291 12ZM19.6229 16C19.6069 15.8674 19.5909 15.7326 19.5703 15.6C19.5497 15.4674 19.5314 15.3349 19.5063 15.2046C19.4811 15.0743 19.4606 14.9417 19.4354 14.8114C19.4103 14.6811 19.3783 14.5486 19.3463 14.4297C19.327 14.3399 19.3791 14.2501 19.4666 14.2223C19.5542 14.1945 19.6485 14.2378 19.6846 14.3223C19.7349 14.464 19.7691 14.592 19.8057 14.7291C19.8423 14.8663 19.8743 14.9966 19.904 15.1314C19.9611 15.4034 20.0069 15.6731 20.0503 15.9451C20.1051 16.3017 20.1417 16.6606 20.1714 17.0171C20.4 17.0286 20.6446 17.0446 20.88 17.0674C21.5184 17.1329 22.1482 17.2655 22.7589 17.4629C22.8366 17.4914 22.8803 17.5739 22.8604 17.6543C22.8404 17.7346 22.7632 17.7871 22.6811 17.776H22.6697C22.3634 17.7234 22.0663 17.6503 21.7554 17.616L21.5269 17.5817L21.4126 17.5657H21.2983L20.8411 17.5223C20.7634 17.5109 20.6857 17.5223 20.6126 17.5063L20.384 17.4926H20.2149C20.2149 17.5314 20.2149 17.5703 20.2149 17.6091L20.2331 18.0183V18.4297C20.2331 18.704 20.2331 18.9783 20.2331 19.2526C20.2331 19.5269 20.2126 19.7989 20.2034 20.0709C20.1943 20.3429 20.1646 20.6171 20.1394 20.8891C20.1259 20.9794 20.0463 21.0449 19.9551 21.0408C19.8639 21.0366 19.7905 20.9643 19.7851 20.8731C19.7851 20.6034 19.7851 20.3337 19.7989 20.064C19.8126 19.7943 19.7989 19.5223 19.7989 19.2526C19.7989 18.9829 19.7989 18.7131 19.7851 18.4457L19.7714 18.0411V17.6C19.7714 17.5474 19.7714 17.4971 19.7714 17.4469H19.4651H19.008C18.8526 17.4469 18.6971 17.4606 18.5509 17.4651C18.4046 17.4697 18.24 17.4811 18.0937 17.4949C17.7829 17.5154 17.472 17.5451 17.1634 17.5794C16.544 17.6503 15.9223 17.7394 15.3166 17.8583C15.2284 17.8751 15.1429 17.8182 15.1246 17.7303C15.1096 17.6471 15.1599 17.5661 15.2411 17.5429C15.5543 17.4583 15.8606 17.392 16.1737 17.3303C16.4869 17.2686 16.7977 17.2183 17.1131 17.1703C17.2686 17.1451 17.4286 17.1291 17.5863 17.1086C17.744 17.088 17.9017 17.072 18.0594 17.0583C18.2171 17.0446 18.3749 17.0286 18.5349 17.0217C18.6949 17.0149 18.8526 16.9989 19.0126 16.9966C19.264 16.9851 19.5154 16.9829 19.7691 16.9966C19.7417 16.6606 19.7097 16.3269 19.6686 15.9954L19.6229 16ZM13.5657 14.3749C13.4514 14.7543 13.184 15.6686 13.0171 16.384C12.5889 18.4694 12.2768 20.5771 12.0823 22.6971C11.0517 22.3176 10.0822 21.7893 9.20457 21.1291C9.38786 19.753 9.68215 18.3939 10.0846 17.0651C10.231 16.5829 10.4319 16.119 10.6834 15.6823C10.8849 15.3887 11.1632 15.1562 11.488 15.0103L11.5474 14.9829L11.6457 14.928L11.7714 14.864C11.8583 14.8229 11.9429 14.7817 12.0274 14.7451L12.1577 14.688L12.2857 14.6354L12.5463 14.5349C12.7749 14.4503 13.1634 14.3314 13.4057 14.2606C13.5314 14.224 13.5977 14.2606 13.5657 14.3749ZM23.7463 17.5749C23.3897 16.2469 22.9074 14.1669 21.4834 13.6891C19.9657 13.1726 18.3337 13.1154 16.7566 13.216C15.6338 13.2881 14.5228 13.4867 13.4446 13.808C12.9669 13.9474 11.4354 14.5349 11.1314 14.6903C10.7838 14.847 10.4858 15.0961 10.2697 15.4103C10 15.878 9.78455 16.3749 9.62743 16.8914C9.24331 18.1644 8.94925 19.4629 8.74743 20.7771C8.48 20.5486 8.21943 20.32 7.97028 20.0663C3.53356 15.6311 3.51353 8.44478 7.92547 3.98492C12.3374 -0.474941 19.5235 -0.532559 24.0064 3.85598C28.4893 8.24453 28.5845 15.4302 24.2194 19.936C24.1131 19.1403 23.955 18.3523 23.7463 17.5771" fill="black"/>
</g>
<defs>
<filter id="filter0_d_18_33" x="0" y="0" width="32" height="32" filterUnits="userSpaceOnUse" color-interpolation-filters="sRGB">
<feFlood flood-opacity="0" result="BackgroundImageFix"/>
<feColorMatrix in="SourceAlpha" type="matrix" values="0 0 0 0 0 0 0 0 0 0 0 0 0 0 0 0 0 0 127 0" result="hardAlpha"/>
<feOffset dy="4"/>
<feGaussianBlur stdDeviation="2"/>
<feComposite in2="hardAlpha" operator="out"/>
<feColorMatrix type="matrix" values="0 0 0 0 0 0 0 0 0 0 0 0 0 0 0 0 0 0 0.25 0"/>
<feBlend mode="normal" in2="BackgroundImageFix" result="effect1_dropShadow_18_33"/>
<feBlend mode="normal" in="SourceGraphic" in2="effect1_dropShadow_18_33" result="shape"/>
</filter>
<clipPath id="clip0_18_33">
<rect width="24" height="24" fill="white" transform="translate(4)"/>
</clipPath>
</defs>
</svg>
