<svg width="182" height="60" viewBox="0 0 182 60" fill="none" xmlns="http://www.w3.org/2000/svg">
<g clip-path="url(#clip0_18_68)" filter="url(#filter0_d_18_68)">
<path d="M29.9935 1.52588e-05C15.638 1.52588e-05 4 11.6405 4 25.9996C4 40.3601 15.638 52 29.9935 52C44.3497 52 55.987 40.3601 55.987 25.9996C55.987 11.6415 44.3503 0.0012562 29.9932 0.0012562L29.9935 1.52588e-05ZM41.914 37.4988C41.4471 38.2648 40.4495 38.5048 39.6862 38.0381C33.5823 34.3065 25.8994 33.4636 16.8513 35.531C15.9794 35.731 15.1103 35.1843 14.9117 34.3124C14.7121 33.4403 15.2562 32.571 16.1303 32.3723C26.0319 30.108 34.5253 31.0826 41.3767 35.2703C42.1402 35.7391 42.3823 36.7357 41.9136 37.4994L41.914 37.4988ZM45.0955 30.4204C44.5076 31.3745 43.2604 31.6738 42.3078 31.0879C35.3224 26.7928 24.6705 25.5488 16.4062 28.058C15.3344 28.3818 14.2024 27.7776 13.8771 26.7075C13.5543 25.6354 14.1586 24.5053 15.2286 24.1793C24.6687 21.3142 36.4041 22.702 44.4278 27.6339C45.3808 28.2207 45.6818 29.4688 45.0952 30.4207L45.0955 30.4204ZM45.3687 23.0485C36.9898 18.0713 23.1691 17.6137 15.1705 20.0419C13.8861 20.4315 12.5278 19.7063 12.1386 18.4215C11.7493 17.1362 12.4738 15.7785 13.7591 15.3879C22.941 12.5999 38.2047 13.1386 47.85 18.8658C49.0053 19.5517 49.3843 21.0441 48.6995 22.1981C48.0166 23.3537 46.5205 23.7347 45.369 23.0485H45.3687ZM74.7197 24.0023C70.2317 22.9318 69.4327 22.1805 69.4327 20.6017C69.4327 19.1102 70.8367 18.1064 72.9244 18.1064C74.9482 18.1064 76.9549 18.8686 79.0587 20.4378C79.1224 20.4853 79.2022 20.5042 79.2807 20.4918C79.3592 20.48 79.4287 20.4368 79.4747 20.372L81.6661 17.2821C81.7561 17.1548 81.7316 16.9794 81.6102 16.8822C79.1063 14.8726 76.2866 13.8955 72.9908 13.8955C68.1449 13.8955 64.7601 16.8043 64.7601 20.9662C64.7601 25.4292 67.68 27.0095 72.7258 28.2294C77.0204 29.2188 77.7452 30.0478 77.7452 31.5297C77.7452 33.1718 76.2795 34.1926 73.9208 34.1926C71.3011 34.1926 69.1643 33.3099 66.7739 31.2394C66.7146 31.1882 66.6333 31.1649 66.5582 31.1692C66.479 31.1758 66.4067 31.2124 66.3564 31.2729L63.8993 34.1979C63.7963 34.3193 63.8093 34.5006 63.9285 34.6056C66.7097 37.089 70.1302 38.4008 73.8215 38.4008C79.0433 38.4008 82.4176 35.5469 82.4176 31.1298C82.4269 27.4011 80.1952 25.3364 74.7291 24.0063L74.7197 24.0023ZM94.2312 19.575C91.9678 19.575 90.1113 20.4666 88.5805 22.2938V20.2372C88.5805 20.0748 88.4489 19.9426 88.2868 19.9426H84.2681C84.1058 19.9426 83.9745 20.0748 83.9745 20.2372V43.0886C83.9745 43.2509 84.1058 43.3832 84.2681 43.3832H88.2868C88.4489 43.3832 88.5805 43.2509 88.5805 43.0886V35.8754C90.1117 37.5941 91.9685 38.434 94.2312 38.434C98.4368 38.434 102.694 35.1958 102.694 29.0056C102.7 22.8138 98.4418 19.5747 94.2359 19.5747L94.2312 19.575ZM98.0212 29.0056C98.0212 32.1578 96.08 34.3575 93.3003 34.3575C90.5524 34.3575 88.4796 32.0578 88.4796 29.0056C88.4796 25.9536 90.5524 23.6536 93.3003 23.6536C96.035 23.6533 98.0215 25.9036 98.0215 29.0052L98.0212 29.0056ZM113.606 19.575C108.19 19.575 103.947 23.7465 103.947 29.0729C103.947 34.3413 108.161 38.469 113.54 38.469C118.975 38.469 123.231 34.3115 123.231 29.0055C123.231 23.7179 119.004 19.5756 113.606 19.5756V19.575ZM113.606 34.3888C110.725 34.3888 108.554 32.0736 108.554 29.004C108.554 25.9213 110.65 23.6844 113.54 23.6844C116.439 23.6844 118.626 25.9995 118.626 29.0714C118.626 32.1534 116.515 34.3888 113.606 34.3888ZM134.797 19.9426H130.375V15.4202C130.375 15.2582 130.244 15.1259 130.081 15.1259H126.063C125.901 15.1259 125.769 15.2582 125.769 15.4202V19.9426H123.837C123.675 19.9426 123.544 20.0748 123.544 20.2372V23.6918C123.544 23.8539 123.675 23.9865 123.837 23.9865H125.769V32.9253C125.769 36.5376 127.566 38.3691 131.111 38.3691C132.553 38.3691 133.749 38.0713 134.876 37.4321C134.967 37.3808 135.024 37.2821 135.024 37.1772V33.8874C135.024 33.7859 134.971 33.69 134.884 33.6369C134.797 33.5819 134.688 33.5791 134.598 33.6235C133.824 34.0132 133.076 34.1929 132.239 34.1929C130.95 34.1929 130.375 33.6074 130.375 32.295V23.988H134.797C134.959 23.988 135.09 23.8558 135.09 23.6934V20.2391C135.096 20.0767 134.966 19.9445 134.801 19.9445L134.797 19.9426ZM150.205 19.9603V19.4048C150.205 17.7708 150.831 17.0421 152.236 17.0421C153.074 17.0421 153.747 17.2085 154.501 17.46C154.593 17.4892 154.69 17.4746 154.766 17.419C154.843 17.3635 154.887 17.2744 154.887 17.18V13.7927C154.887 13.6632 154.804 13.5487 154.679 13.5105C153.883 13.2736 152.864 13.0305 151.339 13.0305C147.627 13.0305 145.665 15.1212 145.665 19.0745V19.9252H143.734C143.572 19.9252 143.44 20.0574 143.44 20.2195V23.6918C143.44 23.8539 143.572 23.9864 143.734 23.9864H145.665V37.7742C145.665 37.9366 145.796 38.0688 145.958 38.0688H149.977C150.139 38.0688 150.271 37.9366 150.271 37.7742V23.9874H154.024L159.771 37.7717C159.119 39.2201 158.477 39.5082 157.601 39.5082C156.893 39.5082 156.148 39.2968 155.385 38.8795C155.314 38.84 155.228 38.8335 155.151 38.8575C155.074 38.8845 155.01 38.9416 154.977 39.0161L153.615 42.005C153.55 42.1463 153.606 42.3121 153.742 42.3853C155.164 43.1556 156.447 43.4844 158.034 43.4844C161.001 43.4844 162.641 42.1019 164.087 38.3824L171.059 20.3626C171.094 20.272 171.084 20.1695 171.028 20.0891C170.973 20.0093 170.884 19.9612 170.786 19.9612H166.603C166.477 19.9612 166.365 20.041 166.324 20.1586L162.039 32.403L157.344 20.1506C157.302 20.0366 157.192 19.9612 157.07 19.9612H150.204L150.205 19.9603ZM141.272 19.9426H137.253C137.091 19.9426 136.959 20.0748 136.959 20.2372V37.7742C136.959 37.9366 137.091 38.0688 137.253 38.0688H141.272C141.434 38.0688 141.566 37.9366 141.566 37.7742V20.2384C141.566 20.1997 141.559 20.1613 141.544 20.1255C141.529 20.0897 141.508 20.0572 141.48 20.0298C141.453 20.0024 141.42 19.9807 141.384 19.966C141.349 19.9512 141.31 19.9437 141.271 19.9438L141.272 19.9426ZM139.285 11.9575C137.693 11.9575 136.401 13.2466 136.401 14.839C136.401 16.4324 137.694 17.723 139.285 17.723C140.877 17.723 142.167 16.4324 142.167 14.839C142.167 13.2469 140.876 11.9575 139.287 11.9575H139.285ZM174.49 25.581C172.9 25.581 171.662 24.3034 171.662 22.752C171.662 21.2006 172.916 19.9084 174.505 19.9084C176.096 19.9084 177.333 21.1857 177.333 22.7359C177.333 24.2873 176.079 25.581 174.49 25.581ZM174.506 20.1897C173.057 20.1897 171.961 21.3415 171.961 22.752C171.961 24.1619 173.05 25.2982 174.491 25.2982C175.94 25.2982 177.037 24.1473 177.037 22.7359C177.037 21.326 175.947 20.1897 174.507 20.1897H174.506ZM175.133 23.0268L175.933 24.147H175.258L174.538 23.1193H173.919V24.147H173.354V21.1776H174.678C175.368 21.1776 175.821 21.5306 175.821 22.1249C175.825 22.6117 175.542 22.9091 175.135 23.0268H175.133ZM174.655 21.6871H173.919V22.6263H174.655C175.022 22.6263 175.242 22.4465 175.242 22.1562C175.242 21.8507 175.021 21.6871 174.655 21.6871Z" fill="#6C6C6C"/>
</g>
<defs>
<filter id="filter0_d_18_68" x="0" y="0" width="182" height="60" filterUnits="userSpaceOnUse" color-interpolation-filters="sRGB">
<feFlood flood-opacity="0" result="BackgroundImageFix"/>
<feColorMatrix in="SourceAlpha" type="matrix" values="0 0 0 0 0 0 0 0 0 0 0 0 0 0 0 0 0 0 127 0" result="hardAlpha"/>
<feOffset dy="4"/>
<feGaussianBlur stdDeviation="2"/>
<feComposite in2="hardAlpha" operator="out"/>
<feColorMatrix type="matrix" values="0 0 0 0 0 0 0 0 0 0 0 0 0 0 0 0 0 0 0.25 0"/>
<feBlend mode="normal" in2="BackgroundImageFix" result="effect1_dropShadow_18_68"/>
<feBlend mode="normal" in="SourceGraphic" in2="effect1_dropShadow_18_68" result="shape"/>
</filter>
<clipPath id="clip0_18_68">
<rect width="174" height="52" fill="white" transform="translate(4)"/>
</clipPath>
</defs>
</svg>
