<svg width="30" height="33" viewBox="0 0 30 33" fill="none" xmlns="http://www.w3.org/2000/svg">
<g clip-path="url(#clip0_18_90)" filter="url(#filter0_d_18_90)">
<path d="M23.2694 4.81427C23.2602 4.76077 23.2339 4.71176 23.1945 4.67471C23.1551 4.63766 23.1047 4.61458 23.0511 4.60899L21.1839 4.57478L19.5542 2.98143C19.4738 2.93109 19.3827 2.90045 19.2884 2.89196C19.1941 2.88347 19.0991 2.89738 19.011 2.93255L18.2641 3.16227C18.171 2.86029 18.0509 2.56746 17.9052 2.28739C17.7198 1.83983 17.4103 1.45563 17.0137 1.18083C16.6172 0.906033 16.1504 0.75229 15.6693 0.738026H15.4705L15.388 0.640274C15.1915 0.424347 14.95 0.25495 14.6808 0.144247C14.4116 0.0335442 14.1214 -0.0157171 13.8311 5.22239e-07C12.6235 0.0342136 11.4061 0.909091 10.4361 2.44379C9.76039 3.5196 9.30065 4.71851 9.08289 5.97263L6.70635 6.71066C6.00309 6.93548 5.98369 6.95503 5.89153 7.61486C5.83333 8.13783 4 22.3363 4 22.3363L19.3505 25L26 23.3382C26 23.3382 23.284 4.94135 23.2694 4.81427ZM17.4978 3.38221L16.3047 3.75367C16.307 3.00354 16.184 2.25837 15.9409 1.54937C16.8527 1.72532 17.3038 2.76149 17.4978 3.38221ZM15.5044 4.00293L12.9387 4.79961C13.1666 3.86913 13.6105 3.00645 14.2337 2.2825C14.4746 2.01052 14.7707 1.79384 15.1019 1.64712C15.3971 2.39564 15.5342 3.198 15.5044 4.00293ZM13.8554 0.806452C14.1114 0.794293 14.3651 0.860763 14.5829 0.997068C14.2323 1.18685 13.9159 1.43468 13.6468 1.73021C12.8296 2.68126 12.2802 3.83569 12.056 5.07331L9.95106 5.72336C10.3876 3.7781 11.9929 0.860216 13.8554 0.806452Z" fill="#94BE47"/>
<path d="M15.6645 8.04008L14.8884 10.9384C14.2924 10.6922 13.6501 10.5804 13.0066 10.6109C11.5079 10.7038 11.4934 11.652 11.5079 11.8915C11.5904 13.1867 14.9903 13.4702 15.1795 16.5054C15.3298 18.8954 13.9184 20.5279 11.8814 20.6549C11.1949 20.7171 10.5032 20.6345 9.85015 20.4123C9.19713 20.1902 8.59721 19.8334 8.08862 19.3646L8.60758 17.1554C8.60758 17.1554 9.96076 18.1818 11.0326 18.1329C11.1626 18.1305 11.2907 18.1017 11.4094 18.0484C11.5281 17.9951 11.6349 17.9183 11.7236 17.8226C11.8123 17.7268 11.8809 17.6141 11.9255 17.4911C11.9701 17.3681 11.9898 17.2373 11.9832 17.1065C11.8765 15.391 9.10714 15.4888 8.93254 12.7077C8.78704 10.3715 10.3148 8.00098 13.6953 7.78592C14.3624 7.71086 15.0377 7.79801 15.6645 8.04008Z" fill="black"/>
<path d="M19.2487 2.87879L19.3457 25L26 23.3431L23.2694 4.81427L21.1839 4.57478L19.2487 2.87879Z" fill="#5E8D3E"/>
</g>
<defs>
<filter id="filter0_d_18_90" x="0" y="0" width="30" height="33" filterUnits="userSpaceOnUse" color-interpolation-filters="sRGB">
<feFlood flood-opacity="0" result="BackgroundImageFix"/>
<feColorMatrix in="SourceAlpha" type="matrix" values="0 0 0 0 0 0 0 0 0 0 0 0 0 0 0 0 0 0 127 0" result="hardAlpha"/>
<feOffset dy="4"/>
<feGaussianBlur stdDeviation="2"/>
<feComposite in2="hardAlpha" operator="out"/>
<feColorMatrix type="matrix" values="0 0 0 0 0 0 0 0 0 0 0 0 0 0 0 0 0 0 0.25 0"/>
<feBlend mode="normal" in2="BackgroundImageFix" result="effect1_dropShadow_18_90"/>
<feBlend mode="normal" in="SourceGraphic" in2="effect1_dropShadow_18_90" result="shape"/>
</filter>
<clipPath id="clip0_18_90">
<rect width="22" height="25" fill="white" transform="translate(4)"/>
</clipPath>
</defs>
</svg>
